<svg xmlns="http://www.w3.org/2000/svg" width="960" height="540" viewBox="0 0 960 540">
  <rect width="960" height="540" fill="#0f1419"/>
  <rect x="0" y="0" width="200" height="540" fill="#1a2332"/>
  <text x="24" y="40" fill="#e7ecf3" font-family="Segoe UI, sans-serif" font-size="18" font-weight="600">Telegram Manager</text>
  <rect x="16" y="64" width="168" height="32" rx="6" fill="#2563eb"/>
  <text x="32" y="85" fill="#fff" font-family="Segoe UI, sans-serif" font-size="13">Tổng quan</text>
  <text x="32" y="120" fill="#94a3b8" font-family="Segoe UI, sans-serif" font-size="13">Sessions</text>
  <text x="32" y="148" fill="#94a3b8" font-family="Segoe UI, sans-serif" font-size="13">Groups</text>
  <text x="32" y="176" fill="#94a3b8" font-family="Segoe UI, sans-serif" font-size="13">Dialogs</text>
  <text x="224" y="48" fill="#e7ecf3" font-family="Segoe UI, sans-serif" font-size="28" font-weight="600">Tổng quan</text>
  <text x="224" y="76" fill="#94a3b8" font-family="Segoe UI, sans-serif" font-size="14">Dashboard — 21 API endpoint</text>
  <rect x="224" y="96" width="140" height="72" rx="8" fill="#1e293b" stroke="#334155"/>
  <text x="240" y="124" fill="#94a3b8" font-family="Segoe UI, sans-serif" font-size="12">Health</text>
  <text x="240" y="152" fill="#22c55e" font-family="Segoe UI, sans-serif" font-size="20" font-weight="600">OK</text>
  <rect x="380" y="96" width="140" height="72" rx="8" fill="#1e293b" stroke="#334155"/>
  <text x="396" y="124" fill="#94a3b8" font-family="Segoe UI, sans-serif" font-size="12">Sessions</text>
  <text x="396" y="152" fill="#e7ecf3" font-family="Segoe UI, sans-serif" font-size="20" font-weight="600">3</text>
  <rect x="224" y="188" width="696" height="320" rx="8" fill="#1e293b" stroke="#334155"/>
  <text x="244" y="220" fill="#e7ecf3" font-family="Segoe UI, sans-serif" font-size="16" font-weight="600">API map</text>
  <rect x="244" y="236" width="52" height="22" rx="4" fill="#166534"/><text x="252" y="252" fill="#bbf7d0" font-family="monospace" font-size="11">GET</text>
  <text x="308" y="252" fill="#cbd5e1" font-family="monospace" font-size="12">/api/health</text>
  <rect x="244" y="268" width="52" height="22" rx="4" fill="#166534"/><text x="252" y="284" fill="#bbf7d0" font-family="monospace" font-size="11">GET</text>
  <text x="308" y="284" fill="#cbd5e1" font-family="monospace" font-size="12">/api/sessions</text>
  <rect x="244" y="300" width="52" height="22" rx="4" fill="#1d4ed8"/><text x="248" y="316" fill="#bfdbfe" font-family="monospace" font-size="11">POST</text>
  <text x="308" y="316" fill="#cbd5e1" font-family="monospace" font-size="12">/api/messages/send</text>
  <rect x="244" y="332" width="52" height="22" rx="4" fill="#1d4ed8"/><text x="248" y="348" fill="#bfdbfe" font-family="monospace" font-size="11">POST</text>
  <text x="308" y="348" fill="#cbd5e1" font-family="monospace" font-size="12">/api/messages/reply</text>
  <rect x="244" y="364" width="64" height="22" rx="4" fill="#991b1b"/><text x="250" y="380" fill="#fecaca" font-family="monospace" font-size="11">DELETE</text>
  <text x="320" y="380" fill="#cbd5e1" font-family="monospace" font-size="12">/api/messages/{id}</text>
</svg>