<svg xmlns="http://www.w3.org/2000/svg" width="960" height="540" viewBox="0 0 960 540">
  <rect width="960" height="540" fill="#0f1419"/>
  <rect x="0" y="0" width="200" height="540" fill="#1a2332"/>
  <text x="24" y="40" fill="#e7ecf3" font-family="Segoe UI, sans-serif" font-size="18" font-weight="600">Telegram Manager</text>
  <text x="224" y="48" fill="#e7ecf3" font-family="Segoe UI, sans-serif" font-size="28" font-weight="600">Dialogs</text>
  <text x="224" y="76" fill="#94a3b8" font-family="Segoe UI, sans-serif" font-size="14">Chat list, đọc/gửi/reply/xóa tin</text>
  <rect x="224" y="96" width="280" height="412" rx="8" fill="#1e293b" stroke="#334155"/>
  <rect x="240" y="112" width="248" height="32" rx="6" fill="#0f172a" stroke="#334155"/>
  <text x="252" y="133" fill="#64748b" font-family="Segoe UI, sans-serif" font-size="13">Tìm chat…</text>
  <rect x="240" y="156" width="248" height="48" rx="6" fill="#2563eb22" stroke="#2563eb"/>
  <text x="252" y="178" fill="#e7ecf3" font-family="Segoe UI, sans-serif" font-size="14" font-weight="600">Alice</text>
  <text x="252" y="196" fill="#94a3b8" font-family="Segoe UI, sans-serif" font-size="12">Private · unread 2</text>
  <rect x="240" y="212" width="248" height="48" rx="6" fill="#0f172a"/>
  <text x="252" y="234" fill="#e7ecf3" font-family="Segoe UI, sans-serif" font-size="14">Dev Group</text>
  <text x="252" y="252" fill="#94a3b8" font-family="Segoe UI, sans-serif" font-size="12">Group</text>
  <rect x="520" y="96" width="400" height="360" rx="8" fill="#1e293b" stroke="#334155"/>
  <text x="540" y="128" fill="#e7ecf3" font-family="Segoe UI, sans-serif" font-size="16" font-weight="600">Alice</text>
  <rect x="540" y="148" width="220" height="56" rx="12" fill="#334155"/>
  <text x="556" y="172" fill="#e7ecf3" font-family="Segoe UI, sans-serif" font-size="13">Chào bạn!</text>
  <text x="556" y="192" fill="#94a3b8" font-family="Segoe UI, sans-serif" font-size="11">10:02</text>
  <rect x="660" y="220" width="240" height="56" rx="12" fill="#2563eb"/>
  <text x="676" y="244" fill="#fff" font-family="Segoe UI, sans-serif" font-size="13">Mình reply được rồi</text>
  <text x="676" y="264" fill="#bfdbfe" font-family="Segoe UI, sans-serif" font-size="11">10:03 · Xóa</text>
  <rect x="520" y="468" width="400" height="40" rx="8" fill="#0f172a" stroke="#334155"/>
  <text x="536" y="493" fill="#64748b" font-family="Segoe UI, sans-serif" font-size="13">Nhập tin nhắn…</text>
  <rect x="860" y="472" width="48" height="32" rx="6" fill="#2563eb"/>
  <text x="872" y="493" fill="#fff" font-family="Segoe UI, sans-serif" font-size="13">Gửi</text>
</svg>