<svg xmlns="http://www.w3.org/2000/svg" width="960" height="540" viewBox="0 0 960 540">
  <rect width="960" height="540" fill="#0f1419"/>
  <rect x="0" y="0" width="200" height="540" fill="#1a2332"/>
  <text x="24" y="40" fill="#e7ecf3" font-family="Segoe UI, sans-serif" font-size="18" font-weight="600">Telegram Manager</text>
  <text x="224" y="48" fill="#e7ecf3" font-family="Segoe UI, sans-serif" font-size="28" font-weight="600">Sessions</text>
  <text x="224" y="76" fill="#94a3b8" font-family="Segoe UI, sans-serif" font-size="14">Quản lý file .session trên disk</text>
  <rect x="224" y="96" width="696" height="48" rx="8" fill="#1e293b" stroke="#334155"/>
  <text x="244" y="126" fill="#94a3b8" font-family="Segoe UI, sans-serif" font-size="13" font-weight="600">Phone</text>
  <text x="420" y="126" fill="#94a3b8" font-family="Segoe UI, sans-serif" font-size="13" font-weight="600">Status</text>
  <text x="560" y="126" fill="#94a3b8" font-family="Segoe UI, sans-serif" font-size="13" font-weight="600">File</text>
  <text x="780" y="126" fill="#94a3b8" font-family="Segoe UI, sans-serif" font-size="13" font-weight="600">Actions</text>
  <rect x="224" y="156" width="696" height="56" rx="8" fill="#1e293b" stroke="#334155"/>
  <text x="244" y="190" fill="#e7ecf3" font-family="monospace" font-size="14">+84901234567</text>
  <rect x="420" y="172" width="64" height="24" rx="12" fill="#166534"/>
  <text x="432" y="188" fill="#bbf7d0" font-family="Segoe UI, sans-serif" font-size="12">live</text>
  <text x="560" y="190" fill="#94a3b8" font-family="monospace" font-size="12">84901234567.session</text>
  <rect x="760" y="172" width="72" height="28" rx="6" fill="#991b1b33" stroke="#991b1b"/>
  <text x="776" y="191" fill="#fecaca" font-family="Segoe UI, sans-serif" font-size="12">Delete</text>
  <rect x="224" y="224" width="696" height="56" rx="8" fill="#1e293b" stroke="#334155"/>
  <text x="244" y="258" fill="#e7ecf3" font-family="monospace" font-size="14">+84909876543</text>
  <rect x="420" y="240" width="88" height="24" rx="12" fill="#854d0e"/>
  <text x="432" y="256" fill="#fde68a" font-family="Segoe UI, sans-serif" font-size="12">unauthorized</text>
  <text x="560" y="258" fill="#94a3b8" font-family="monospace" font-size="12">84909876543.session</text>
  <rect x="224" y="300" width="200" height="40" rx="8" fill="#2563eb"/>
  <text x="268" y="326" fill="#fff" font-family="Segoe UI, sans-serif" font-size="14">Check all sessions</text>
</svg>